<svg width="30" height="30" viewBox="0 0 30 30" fill="none" xmlns="http://www.w3.org/2000/svg">
<path d="M21.518 9.90845H15.4688V16.5925H21.518V9.90845Z" fill="#6FCF97"/>
<path d="M19.4404 16.9358V18.299L21.3152 16.9358H19.4404Z" fill="#6FCF97"/>
<path d="M26.0439 14.8158L28.7369 11.6152H21.8625V16.8665C21.8625 16.8878 21.8595 16.9086 21.8537 16.9284C21.8491 16.9444 21.8426 16.9597 21.8343 16.9741C21.8192 17.0011 21.7981 17.025 21.7719 17.044L20.0459 18.2992H28.7369L26.0439 15.0987C25.975 15.0167 25.975 14.8977 26.0439 14.8158Z" fill="#6FCF97"/>
<path d="M15.1323 8.55615C14.9486 8.61042 14.7541 8.63956 14.553 8.63956C14.3518 8.63956 14.1574 8.61042 13.9736 8.55615V23.3446H15.1323V8.55615Z" fill="#6FCF97"/>
<path d="M12.8398 6.59063C12.8398 7.1991 13.1586 7.73434 13.6379 8.0383C13.6919 8.07264 13.7479 8.10395 13.8058 8.13211C13.8602 8.15854 13.9162 8.18227 13.9737 8.20296C14.1547 8.26828 14.3498 8.30381 14.553 8.30381C14.7562 8.30381 14.9513 8.26828 15.1324 8.20296C15.1899 8.18227 15.2459 8.15854 15.3003 8.13211C15.3581 8.10395 15.4141 8.07264 15.4682 8.0383C15.9474 7.73434 16.2662 7.1991 16.2662 6.59063C16.2662 5.64602 15.4976 4.87744 14.553 4.87744C13.6084 4.87744 12.8398 5.64602 12.8398 6.59063Z" fill="#6FCF97"/>
<path d="M11.22 23.6804C10.5473 23.6804 10 24.2277 10 24.9004V25.6649C10 25.822 10.1275 25.9495 10.2847 25.9495H18.8221C18.9793 25.9495 19.1068 25.822 19.1068 25.6649V24.9004C19.1068 24.2277 18.5595 23.6804 17.8868 23.6804H11.22Z" fill="#6FCF97"/>
<path d="M26.9057 14.4155L29.5357 11.2897L30.0002 10.7377H22.3955V9.03101H16.0104V7.88199C16.6821 7.54531 17.1443 6.85018 17.1443 6.049C17.1443 4.91915 16.2251 4 15.0953 4C13.9654 4 13.0463 4.91915 13.0463 6.049C13.0463 6.85018 13.5084 7.54531 14.1801 7.88199V22.803H11.7618C10.904 22.803 10.2061 23.5008 10.2061 24.3588V25.1232C10.2061 25.4653 10.4845 25.7437 10.8265 25.7437H19.364C19.7061 25.7437 19.9845 25.4653 19.9845 25.1232V24.3588C19.9845 23.5008 19.2865 22.803 18.4287 22.803H16.0104V16.3867H19.6469V18.0266V18.0933H20.092H30.0002L29.5357 17.5414L26.9057 14.4155ZM18.4287 23.1388C19.1014 23.1388 19.6487 23.6861 19.6487 24.3588V25.1232C19.6487 25.2804 19.5212 25.4079 19.364 25.4079H10.8265C10.6694 25.4079 10.5419 25.2804 10.5419 25.1232V24.3588C10.5419 23.6861 11.0891 23.1388 11.7618 23.1388H18.4287ZM14.5159 22.803V8.01458C14.6997 8.06885 14.8941 8.09799 15.0953 8.09799C15.2964 8.09799 15.4909 8.06885 15.6746 8.01458V22.803H14.5159ZM15.8425 7.59048C15.7881 7.61691 15.7321 7.64064 15.6746 7.66133C15.4936 7.72665 15.2985 7.76218 15.0953 7.76218C14.892 7.76218 14.6969 7.72665 14.5159 7.66133C14.4584 7.64064 14.4024 7.61691 14.348 7.59048C14.2902 7.56232 14.2342 7.53101 14.1801 7.49667C13.7009 7.19271 13.3821 6.65747 13.3821 6.049C13.3821 5.10439 14.1507 4.33581 15.0953 4.33581C16.0399 4.33581 16.8084 5.10439 16.8084 6.049C16.8084 6.65747 16.4896 7.19271 16.0104 7.49667C15.9564 7.53101 15.9003 7.56232 15.8425 7.59048ZM16.0104 16.0509V9.36682H22.0597V16.0509H16.0104ZM19.9827 17.7575V16.3943H21.8575L19.9827 17.7575ZM20.5877 17.7575L22.3137 16.5023C22.3399 16.4832 22.361 16.4594 22.3761 16.4324C22.3844 16.418 22.3909 16.4026 22.3955 16.3867C22.4013 16.3669 22.4044 16.3461 22.4044 16.3247V11.0735H29.2788L26.5858 14.2741C26.5169 14.356 26.5169 14.475 26.5858 14.557L29.2788 17.7575H20.5877Z" fill="#333333"/>
</svg>
