<svg width="30" height="30" viewBox="0 0 30 30" fill="none" xmlns="http://www.w3.org/2000/svg">
<path d="M23.1913 12.497C23.5398 15.4483 22.1345 18.5187 20.4007 20.8006C18.1618 23.7471 14.1336 25.9381 10.4514 24.2766C9.10635 23.6689 6.73247 21.9665 7.22289 20.2069C7.24409 20.1317 7.27254 20.0545 7.334 20.0062C7.40042 19.9563 7.48969 19.9492 7.57223 19.9487C9.9296 19.9347 12.0174 18.8807 12.481 16.3791C12.6787 15.3156 12.871 14.2525 13.0739 13.1897C13.3742 11.6176 14.184 10.1329 15.4873 9.17491C16.7506 8.24639 19.0104 7.39647 20.4577 8.41693C21.8736 9.41517 22.98 10.7097 23.1913 12.497Z" fill="#FC1A1A"/>
<path d="M22.2367 10.4363C22.6748 11.461 22.8999 12.4513 22.9423 13.5614C22.9841 14.6525 22.6548 15.7791 22.3727 16.8341C22.1851 17.5353 21.9423 18.2205 21.6552 18.8868C22.7438 16.9378 23.4496 14.6847 23.1913 12.497C23.0279 11.1145 22.3277 10.0279 21.3643 9.14404C21.6394 9.51332 22.0553 10.012 22.2367 10.4363Z" fill="#FDE41B"/>
<path d="M15.2805 9.7643C15.9045 9.18677 16.6833 8.76022 17.4648 8.42015C18.1226 8.13392 18.8963 8.1051 19.6079 8.04922C19.5943 8.04236 19.5814 8.03487 19.5677 8.02814C18.1962 7.71893 16.5131 8.42104 15.4872 9.17508C14.2419 10.0904 13.4485 11.4869 13.1182 12.9806C13.7443 11.8752 14.3503 10.625 15.2805 9.7643Z" fill="#FDE41B"/>
<g opacity="0.55">
<path d="M21.0865 18.1066C20.125 19.0714 19.0974 19.969 17.9891 20.7622C16.8772 21.5581 15.6843 22.2598 14.3874 22.7063C13.6802 22.9497 12.9553 23.153 12.2137 23.2585C11.5878 23.3477 10.9595 23.3543 10.3323 23.277C9.75846 23.2062 9.18791 23.0811 8.64364 22.8844C8.48135 22.8258 8.3197 22.7602 8.16211 22.6861C8.86079 23.4018 9.78335 23.9744 10.4519 24.2765C14.1342 25.938 18.1623 23.7469 20.4011 20.8005C21.287 19.6345 21.9507 18.222 22.3829 16.738C21.97 17.2128 21.5278 17.6638 21.0865 18.1066Z" fill="#E50E0E"/>
</g>
<g opacity="0.37">
<path d="M16.9554 22.1442C16.3808 22.3065 15.7817 22.3961 15.1873 22.3943C14.925 22.5085 14.6585 22.6131 14.3874 22.7065C13.6802 22.9499 12.9553 23.1532 12.2137 23.2587C11.5878 23.3479 10.9595 23.3545 10.3323 23.2772C9.75846 23.2064 9.18791 23.0813 8.64364 22.8846C8.48135 22.826 8.3197 22.7604 8.16211 22.6863C8.86079 23.402 9.78335 23.9746 10.4519 24.2767C14.1342 25.9382 18.1623 23.7471 20.4011 20.8007C20.4981 20.673 20.5937 20.5421 20.6884 20.4097C20.229 20.7238 19.74 20.9946 19.2372 21.2342C18.5038 21.584 17.7388 21.9231 16.9554 22.1442Z" fill="#E50E0E"/>
</g>
<path d="M17.2228 10.1042C17.2352 9.92375 17.1275 9.77353 16.9704 9.69505C16.5791 9.49962 16.0886 9.71854 15.8001 9.99639C15.7958 10.0006 15.7925 10.0054 15.7893 10.0102C15.6013 10.1714 15.4515 10.3761 15.3603 10.6088C15.2943 10.7775 15.2383 10.9854 15.3274 11.156C15.4237 11.3403 15.6502 11.3819 15.8341 11.316C16.0302 11.2458 16.1701 11.0668 16.328 10.9394C16.5022 10.7987 16.6939 10.6951 16.8829 10.5775C17.0522 10.4722 17.2085 10.3139 17.2228 10.1042Z" fill="white"/>
<path d="M15.4563 11.9518C15.465 11.9023 15.4615 11.8543 15.4455 11.8078C15.4375 11.7597 15.4181 11.7161 15.3873 11.677C15.3586 11.6346 15.3219 11.6024 15.2768 11.5805C15.2354 11.5504 15.1887 11.5325 15.1367 11.527C15.1288 11.5269 15.1208 11.5269 15.1129 11.5268C15.0452 11.5162 14.975 11.5229 14.9101 11.5483C14.8805 11.5599 14.8116 11.605 14.8227 11.5961C14.8092 11.606 14.797 11.6176 14.7862 11.6308C14.7736 11.6419 14.7614 11.6535 14.7497 11.6657C14.7399 11.6802 14.7311 11.695 14.7227 11.7104C14.7118 11.7247 14.7027 11.74 14.6954 11.7561C14.6803 11.7876 14.6716 11.8235 14.6668 11.8586C14.6572 11.9288 14.6667 11.9944 14.6911 12.0605C14.7043 12.0962 14.726 12.1285 14.7455 12.1611C14.768 12.1845 14.7904 12.208 14.8128 12.2315C14.8525 12.2658 14.8974 12.2878 14.9477 12.2973C14.9788 12.3108 15.0113 12.3155 15.045 12.3115C15.0937 12.3162 15.1411 12.3085 15.1868 12.2884C15.1896 12.2877 15.1921 12.2868 15.1948 12.2858C15.21 12.2784 15.2249 12.2703 15.2394 12.2614C15.2544 12.2534 15.2692 12.2451 15.284 12.2367C15.2864 12.2352 15.2885 12.2336 15.2907 12.2318C15.3033 12.22 15.3157 12.2082 15.328 12.1962C15.341 12.1849 15.3534 12.173 15.3652 12.1605C15.367 12.1584 15.3687 12.1561 15.3703 12.1538C15.3877 12.125 15.4051 12.0963 15.4224 12.0675C15.4234 12.0658 15.4243 12.0642 15.425 12.0625C15.441 12.0277 15.4507 11.9894 15.4563 11.9518Z" fill="white"/>
<path d="M22.232 9.38013C22.0307 8.76945 21.6067 8.2789 21.0343 7.99039C21.0336 7.98988 21.033 7.98937 21.0324 7.98886C21.0322 7.98899 21.0322 7.98912 21.0321 7.98937C21.0197 7.98315 21.0077 7.97642 20.9952 7.97045C20.9929 7.93896 20.9878 7.90746 20.9784 7.87673C20.9564 7.80422 20.9089 7.76346 20.8346 7.75216C20.834 7.75203 20.8335 7.75216 20.8329 7.75203C20.8334 7.71635 20.8307 7.68003 20.824 7.6432C20.8147 7.59266 20.7859 7.55901 20.7496 7.54035C20.7875 7.46428 20.8251 7.38822 20.8642 7.31456C20.9723 7.11062 21.0805 6.90656 21.1886 6.70249C21.3722 6.35607 21.5848 5.95644 21.406 5.56291C21.2694 5.26246 20.912 5.13141 20.6297 5.29345C20.5397 5.26246 20.4257 5.30272 20.4256 5.42475C20.4251 5.83555 20.368 6.24204 20.2459 6.63468C20.1866 6.82529 20.114 7.01196 20.0275 7.1919C19.9925 7.26491 19.9597 7.3618 19.873 7.37983C19.7827 7.3985 19.6674 7.37603 19.5756 7.37209C19.3616 7.36307 19.1475 7.35418 18.9335 7.34517C18.749 7.33742 18.5594 7.32117 18.3766 7.35622C18.2632 7.37793 18.1527 7.41895 18.0455 7.4705C18.0309 7.47114 18.0163 7.47088 18.0017 7.47152C17.9288 7.47495 17.8798 7.51927 17.8569 7.57336C17.6936 7.67559 17.5423 7.79978 17.4089 7.92219C17.3034 8.01908 17.3845 8.24423 17.5424 8.19306C17.828 8.10048 18.1204 8.03115 18.418 7.98962C18.6994 7.95039 19.0107 7.91369 19.2943 7.95039C19.4458 7.96994 19.3765 8.07496 19.3183 8.1669C19.2581 8.26188 19.2001 8.35192 19.1758 8.46354C19.1203 8.7198 19.284 8.93034 19.5547 8.89974C19.8058 8.87142 20.0433 8.73097 20.2092 8.54417C20.2495 8.49884 20.2946 8.44106 20.3338 8.37693C20.3587 8.39954 20.3904 8.41439 20.4256 8.41503C20.4492 8.41554 20.4704 8.41122 20.4917 8.40716C20.4533 8.45897 20.4464 8.53046 20.5024 8.59141C20.5751 8.6704 20.6647 8.70748 20.7643 8.71027C20.9426 8.7998 21.0927 8.93707 21.2393 9.07637C21.4432 9.27003 21.6463 9.46406 21.8499 9.65797C21.9199 9.72464 22.0386 9.73518 22.097 9.6435C22.1164 9.61289 22.1288 9.58178 22.137 9.55041C22.2081 9.53149 22.262 9.47092 22.232 9.38013Z" fill="#49C00F"/>
<path d="M22.0724 9.36672C21.7801 8.85484 21.3375 8.45026 20.7994 8.20861C20.6809 8.1554 20.5446 8.09051 20.4131 8.08365C20.2606 8.07565 20.1309 8.18943 20.01 8.26702C19.8428 8.3742 19.4395 8.72773 19.256 8.48683C19.134 8.32658 18.8989 8.53217 19.02 8.69128C19.1886 8.91249 19.4872 8.91275 19.7215 8.80659C19.8569 8.74525 19.9803 8.65446 20.105 8.57458C20.1765 8.52874 20.2472 8.4815 20.3196 8.43693C20.3942 8.39109 20.4197 8.3968 20.5025 8.42588C21.0451 8.61585 21.5076 9.00608 21.7923 9.50476C21.8917 9.6786 22.1722 9.54158 22.0724 9.36672Z" fill="#3E9419"/>
<path d="M20.7408 5.31287C20.7177 5.1135 20.4119 5.17661 20.4349 5.37534C20.5141 6.05942 20.3098 6.75213 19.8881 7.29373C19.7644 7.45246 20.0235 7.62694 20.1464 7.4691C20.6213 6.85918 20.8296 6.07834 20.7408 5.31287Z" fill="#CCED2C"/>
<path d="M19.2131 8.09983C18.7562 8.02809 18.2792 8.03507 17.7939 8.13717L19.2131 8.09983Z" fill="#FC1A1A"/>
<path d="M20.2687 8.58497C21.6986 9.26828 22.7121 10.6791 22.9945 12.2287C23.1522 13.0938 23.1112 14.0089 22.9646 14.8724C22.8122 15.7704 22.5377 16.6481 22.1769 17.4835C21.4944 19.0639 20.5316 20.5854 19.3158 21.8101C18.1816 22.9526 16.7895 23.8814 15.2444 24.3599C13.6931 24.8401 12.0091 24.8142 10.5187 24.1365C9.92413 23.8661 9.35879 23.5112 8.85122 23.1007C8.31026 22.6631 7.79432 22.1415 7.50161 21.501C7.37386 21.2215 7.30174 20.9147 7.31545 20.6068C7.31875 20.5329 7.32675 20.4597 7.34097 20.3872C7.35571 20.3117 7.36866 20.1792 7.43317 20.1308C7.49958 20.0811 7.63431 20.1047 7.71432 20.1028C7.80816 20.1005 7.902 20.0965 7.99572 20.091C8.6864 20.0492 9.37708 19.9162 10.0177 19.6502C10.6242 19.3982 11.1837 19.0316 11.6228 18.5397C12.0856 18.0211 12.4011 17.3886 12.5681 16.7155C12.6871 16.236 12.7575 15.7418 12.847 15.2562C12.9418 14.7414 13.0368 14.2266 13.1336 13.7122C13.2752 12.96 13.441 12.2271 13.7709 11.5317C14.3839 10.2395 15.4267 9.18435 16.758 8.63881C17.1133 8.49329 17.4824 8.38446 17.8579 8.30535C18.0543 8.26395 17.9711 7.96299 17.7749 8.00439C16.2671 8.32211 14.9393 9.16949 14.0499 10.4317C13.6312 11.0259 13.3194 11.6947 13.1098 12.3899C12.9873 12.7965 12.9112 13.2124 12.8328 13.6291C12.7327 14.1604 12.6348 14.6921 12.5368 15.2238C12.3802 16.0737 12.2794 16.948 11.8406 17.7092C11.5038 18.2935 11.0128 18.7681 10.4293 19.1035C9.82851 19.4488 9.14799 19.6474 8.46277 19.7353C8.27877 19.7589 8.09362 19.7745 7.90835 19.7835C7.718 19.7929 7.48498 19.7581 7.30936 19.8421C6.99976 19.9901 6.98503 20.5242 7.00662 20.8204C7.05792 21.524 7.45488 22.1466 7.91864 22.6561C8.41414 23.2003 9.01567 23.6541 9.64679 24.0294C11.0289 24.8517 12.6216 25.1631 14.2118 24.9192C15.8656 24.6656 17.4021 23.8599 18.6853 22.8058C20.0377 21.6948 21.1006 20.261 21.9233 18.7237C22.8009 17.0838 23.4128 15.2436 23.4011 13.3677C23.3957 12.5015 23.2495 11.657 22.887 10.8667C22.5485 10.1285 22.0407 9.45838 21.4108 8.94447C21.1077 8.6971 20.7797 8.4844 20.4265 8.31563C20.246 8.22928 20.0874 8.49836 20.2687 8.58497Z" fill="#841918"/>
<path d="M19.2548 7.94923C18.7532 7.87215 18.25 7.8837 17.7527 7.98656C17.6702 8.00358 17.6224 8.1011 17.6437 8.17856C17.6674 8.26428 17.753 8.30466 17.8358 8.28752C18.2742 8.19685 18.7291 8.18212 19.172 8.25018C19.2552 8.26301 19.3399 8.2291 19.364 8.14123C19.3842 8.06732 19.3386 7.96205 19.2548 7.94923Z" fill="#841918"/>
<path d="M19.102 7.98221C18.9902 8.15465 18.8985 8.36875 18.909 8.57853C18.9205 8.80381 19.0612 9.00876 19.2871 9.06477C19.5093 9.11988 19.7403 9.03022 19.931 8.92064C20.1546 8.79225 20.362 8.62996 20.5738 8.48329C20.643 8.43542 20.6747 8.34653 20.6298 8.26983C20.5897 8.20126 20.4859 8.16557 20.4164 8.21383C20.2312 8.34209 20.0486 8.47542 19.8599 8.59822C19.7278 8.68419 19.5657 8.7727 19.4165 8.76952C19.2956 8.76686 19.2223 8.67035 19.2207 8.56139C19.2195 8.48837 19.2337 8.43098 19.2612 8.35339C19.2858 8.28367 19.3276 8.20773 19.3716 8.1398C19.4175 8.06906 19.386 7.96748 19.3156 7.92633C19.2398 7.88189 19.148 7.91122 19.102 7.98221Z" fill="#841918"/>
<path d="M17.4024 8.2752C17.4604 7.81285 18.0413 7.61779 18.4243 7.53068C18.8696 7.42935 19.3877 7.38846 19.8324 7.51582C20.0258 7.57119 20.1085 7.2701 19.9153 7.21487C19.3923 7.06515 18.7777 7.11645 18.2575 7.24991C17.73 7.38515 17.1648 7.68091 17.0903 8.2752C17.0654 8.47406 17.3778 8.47216 17.4024 8.2752Z" fill="#841918"/>
<path d="M20.7136 7.9012C21.1026 8.06882 21.4392 8.392 21.6941 8.7242C21.8161 8.88306 21.9308 9.05995 21.9976 9.2498C22.0271 9.33348 22.0483 9.41704 22.05 9.49628C22.0515 9.56726 22.0407 9.62644 22.0107 9.68231C21.9157 9.85921 22.1851 10.0171 22.2802 9.8399C22.5018 9.42707 22.2335 8.93106 21.9855 8.59607C21.6997 8.21003 21.3189 7.82488 20.8711 7.63186C20.7938 7.59859 20.7038 7.60888 20.6577 7.68786C20.6191 7.75352 20.6357 7.86768 20.7136 7.9012Z" fill="#841918"/>
<path d="M19.9575 7.47915C20.2584 7.10023 20.473 6.65463 20.5313 6.17107C20.545 6.05716 20.5493 5.94249 20.5404 5.82795C20.5324 5.72458 20.4967 5.61575 20.5336 5.51442C20.592 5.35391 20.7409 5.30515 20.8972 5.31289C21.0355 5.31975 21.192 5.31035 21.2929 5.42274C21.3737 5.5129 21.3931 5.63963 21.3929 5.75646C21.3921 6.08472 21.2562 6.41564 21.121 6.70911C20.9736 7.02911 20.7974 7.33439 20.6171 7.63662C20.514 7.80957 20.7837 7.96665 20.8866 7.79421C21.0642 7.49642 21.2378 7.19585 21.3839 6.88105C21.547 6.52955 21.7086 6.13843 21.7049 5.74388C21.7012 5.34743 21.4705 5.03759 21.0575 5.00952C20.8925 4.99835 20.73 4.98374 20.5742 5.05219C20.3629 5.14514 20.2157 5.35454 20.2052 5.58617C20.1988 5.72649 20.2369 5.86668 20.2321 6.00878C20.2273 6.15278 20.2016 6.29412 20.1625 6.43266C20.0782 6.73184 19.9299 7.01502 19.7367 7.25845C19.6132 7.41414 19.8326 7.63636 19.9575 7.47915Z" fill="#841918"/>
</svg>
