<svg width="30" height="30" viewBox="0 0 30 30" fill="none" xmlns="http://www.w3.org/2000/svg">
<path d="M18.4711 23.854C18.3275 24.2819 17.968 24.6019 17.5276 24.7002C16.6304 24.8997 15.7158 24.9999 14.8022 24.9999C13.8857 24.9999 12.9702 24.8997 12.0701 24.6992C11.6528 24.6472 11.3001 24.361 11.1661 23.962C11.1497 23.9138 11.1333 23.8656 11.1179 23.8184C7.44037 12.8503 9.41599 9.76643 10.6341 8.90969C11.1054 8.57914 11.4128 8.06355 11.4658 7.4911L11.5853 6.20068H18.0143L18.1347 7.4911C18.1877 8.06451 18.4971 8.57914 18.9674 8.91065C20.1884 9.77029 22.1631 12.8619 18.4711 23.854Z" fill="#C4DDF2"/>
<path d="M18.4713 23.854C18.3277 24.2819 17.9683 24.6019 17.5278 24.7002C16.6306 24.8997 15.7161 24.9999 14.8025 24.9999C13.886 24.9999 12.9704 24.8997 12.0703 24.6992C12.0192 24.6925 11.9691 24.6828 11.9209 24.6703C11.5701 24.5759 11.2839 24.3128 11.1663 23.962C11.15 23.9138 11.1336 23.8656 11.1182 23.8184L11.1365 23.6507C24.0676 14.6053 17.2262 9.3742 17.2262 9.3742C16.4273 8.28231 16.5362 6.72205 16.5362 6.72205C16.4822 6.54569 16.435 6.37126 16.3945 6.20068H18.0145L18.135 7.4911C18.1841 8.02114 18.4511 8.50011 18.8626 8.83067C18.8963 8.85861 18.932 8.8856 18.9676 8.91065C20.1887 9.77029 22.1633 12.8619 18.4713 23.854Z" fill="#ACD1EA"/>
<path d="M18.4713 23.8542C18.3277 24.2821 17.9682 24.602 17.5278 24.7003C16.6306 24.8998 15.716 25 14.8024 25C13.8859 25 12.9704 24.8998 12.0703 24.6994C12.0192 24.6926 11.9691 24.683 11.9209 24.6704C14.4227 23.7299 16.6768 22.1002 18.1783 19.8972C19.914 17.3491 20.5606 14.0195 19.6345 11.0801C19.407 10.3602 19.1594 9.57384 18.8625 8.83081C18.8963 8.85876 18.9319 8.88574 18.9676 8.9108C20.1886 9.77043 22.1633 12.862 18.4713 23.8542Z" fill="#8EC8E8"/>
<path d="M18.4638 5.8712C18.4638 5.98106 18.4629 6.19694 18.4609 6.30584C18.4571 6.49858 18.3174 6.6547 18.142 6.66337C17.636 6.68843 17.0983 6.70867 16.5354 6.72216C15.9775 6.73565 15.3973 6.7424 14.7998 6.7424C14.077 6.7424 13.3783 6.73276 12.7172 6.71252C12.6989 6.71252 12.6806 6.71252 12.6632 6.71156C12.4753 6.70578 12.2903 6.69903 12.1091 6.69229C11.8865 6.68361 11.6687 6.67397 11.4567 6.66337C11.2822 6.6547 11.1425 6.49858 11.1386 6.30584C11.1367 6.19694 11.1357 5.98106 11.1357 5.8712C11.1357 5.76134 11.1367 5.54546 11.1386 5.43656C11.1425 5.24382 11.2822 5.0877 11.4567 5.07902C11.6687 5.06842 11.8865 5.05879 12.1091 5.05011C12.3095 5.0424 12.5139 5.03566 12.722 5.02988C13.3822 5.0106 14.0789 5 14.7998 5C15.3963 5 15.9765 5.00675 16.5335 5.02024C17.0963 5.03373 17.636 5.05397 18.142 5.07902C18.3174 5.0877 18.4571 5.24382 18.4609 5.43656C18.4629 5.54546 18.4638 5.76134 18.4638 5.8712Z" fill="#ED392F"/>
<path d="M18.0694 23.7183C17.974 24.0026 17.7312 24.2195 17.4353 24.286C16.5718 24.4777 15.6862 24.5751 14.8015 24.5751H14.8005C13.9148 24.5751 13.0273 24.4777 12.1628 24.285L12.1426 24.2802L12.1233 24.2783C11.8679 24.2464 11.6501 24.0691 11.5682 23.8263C8.35131 14.299 9.42393 10.8807 10.4349 9.67121C10.5447 9.53918 10.7057 9.46112 10.8762 9.45052C11.0362 9.44088 11.1962 9.43124 11.3562 9.42257H11.3571C11.5528 9.41197 11.7494 9.40137 11.9469 9.39269C12.8837 9.35029 13.8358 9.32812 14.8005 9.32812C16.1352 9.32812 17.4459 9.37053 18.7248 9.45052C18.8953 9.46112 19.0553 9.53918 19.1652 9.67024C20.1723 10.8749 21.2429 14.271 18.0694 23.7183Z" fill="#B72A2A"/>
<path d="M18.0688 23.7182C17.9725 24.0025 17.7306 24.2193 17.4347 24.2858C16.5712 24.4776 15.6846 24.575 14.8009 24.575H14.7999C13.9143 24.575 13.0267 24.4776 12.1622 24.2849L12.142 24.2801L12.1217 24.2781C11.8673 24.2463 11.6495 24.069 11.5676 23.8262C11.5233 23.6951 11.4799 23.566 11.4375 23.4378C23.96 14.5234 17.2256 9.37427 17.2256 9.37427C17.7296 9.39451 18.2288 9.41956 18.7232 9.4504C18.8947 9.461 19.0547 9.53906 19.1646 9.67013C20.1717 10.8748 21.2423 14.2709 18.0688 23.7182Z" fill="#840C0C"/>
<path d="M18.0692 23.7183C17.9728 24.0026 17.7309 24.2194 17.435 24.2859C16.5715 24.4777 15.6849 24.575 14.8012 24.575H14.8002C14.0755 24.575 13.3489 24.5095 12.6348 24.3804C14.8484 23.4109 16.8211 21.8882 18.1781 19.8971C19.9137 17.3491 20.5604 14.0194 19.6342 11.0801C19.4935 10.6339 19.3442 10.1617 19.1813 9.69043C20.1836 10.9124 21.2253 14.322 18.0692 23.7183Z" fill="#770A0A"/>
<path d="M18.4645 5.87122C18.4645 5.98109 18.4635 6.19696 18.4616 6.30586C18.4577 6.4986 18.318 6.65473 18.1426 6.6634C17.6366 6.68846 17.0989 6.70869 16.5361 6.72219L16.5322 6.72122C16.8454 5.74691 16.5322 5.02123 16.5322 5.02123L16.5342 5.02026C17.097 5.03376 17.6366 5.05399 18.1426 5.07905C18.318 5.08772 18.4577 5.24385 18.4616 5.43659C18.4635 5.54549 18.4645 5.76136 18.4645 5.87122Z" fill="#D81919"/>
<path d="M19.5435 13.5684C19.5454 14.6689 19.4076 16.0788 19.0337 17.881C18.9778 18.1528 18.7657 18.3677 18.4949 18.4236C17.3896 18.6539 16.1329 18.783 14.7991 18.783C13.4663 18.783 12.2096 18.6539 11.1042 18.4245C10.8334 18.3686 10.6223 18.1537 10.5655 17.882C10.1906 16.0788 10.0528 14.6689 10.0547 13.5684C10.0557 13.2474 10.2764 12.9718 10.5876 12.8938C11.2063 12.7405 11.8809 12.621 12.596 12.5401C12.9902 11.7498 13.8084 11.2063 14.7509 11.2063C15.6896 11.2063 16.5029 11.745 16.8971 12.5295C17.6517 12.6104 18.361 12.7348 19.0096 12.8947C19.3208 12.9718 19.5435 13.2474 19.5435 13.5684Z" fill="#ED392F"/>
<path d="M19.5436 13.5684C19.5456 14.669 19.4078 16.0789 19.0338 17.8811C18.9779 18.1528 18.7669 18.3668 18.4961 18.4227C17.9439 18.5383 17.356 18.6279 16.7373 18.6896C18.657 16.3353 19.1379 14.3885 19.0175 12.8958C19.3249 12.9757 19.5436 13.2494 19.5436 13.5684Z" fill="#D81919"/>
<path d="M18.4483 13.2003C17.8961 13.0663 17.3053 12.9632 16.6895 12.8948C16.306 12.1806 15.5706 11.7393 14.7573 11.7393C13.9381 11.7393 13.2009 12.1845 12.8192 12.9054C12.2227 12.9747 11.6503 13.0769 11.1154 13.2089C11.0913 13.2157 11.0672 13.2234 11.0441 13.2321C10.9891 13.2533 10.9622 13.3149 10.9843 13.3699C11.0007 13.4123 11.0412 13.4373 11.0836 13.4373C11.0961 13.4373 11.1096 13.4354 11.1221 13.4296C11.1376 13.4238 11.1539 13.419 11.1684 13.4152C11.71 13.2812 12.293 13.1791 12.9002 13.1106L12.958 13.1039L12.984 13.0518C13.3204 12.3734 14.0008 11.9513 14.7582 11.9513C15.5109 11.9513 16.1884 12.3695 16.5276 13.0412L16.5536 13.0933L16.6115 13.0991C17.2379 13.1665 17.8392 13.2696 18.3992 13.4055C18.456 13.419 18.5138 13.3843 18.5273 13.3275C18.5408 13.2716 18.5052 13.2147 18.4483 13.2003Z" fill="#FFE7B0"/>
<path d="M18.3844 17.6237C17.2202 17.8685 15.9982 17.9919 14.7521 17.9919C13.5456 17.9919 12.3563 17.8743 11.2153 17.644C11.1575 17.6324 11.1016 17.669 11.09 17.7268C11.0785 17.7847 11.1151 17.8405 11.1729 17.8521C12.3274 18.0863 13.5311 18.2048 14.7512 18.2048C16.0117 18.2048 17.2482 18.0795 18.4268 17.8319C18.4846 17.8203 18.5212 17.7635 18.5087 17.7066C18.4981 17.6488 18.4422 17.6121 18.3844 17.6237Z" fill="#FFE7B0"/>
<path d="M16.4166 15.9872C16.3963 15.755 16.2681 15.5487 16.1631 15.3396C16.06 15.1314 15.9761 14.8876 16.0542 14.6679C15.8807 14.8018 15.7786 15.0264 15.7921 15.2452C15.5213 15.1565 15.3256 14.8674 15.3391 14.5831C15.3488 14.3952 15.4384 14.2198 15.4654 14.0328C15.5068 13.7408 15.3902 13.444 15.2119 13.2088C15.0336 12.9737 14.7975 12.7915 14.5633 12.6104C14.7069 12.9313 14.6838 13.3042 14.5045 13.6078C14.3195 13.921 13.988 14.1301 13.8087 14.4482C13.7249 14.5966 13.6796 14.7797 13.7432 14.9377C13.6218 14.9339 13.535 14.8568 13.4676 14.7546C13.4001 14.6525 13.3866 14.5166 13.4319 14.4038C13.2228 14.7652 13.086 15.1979 13.0869 15.6162C13.0879 16.0344 13.2382 16.4594 13.5379 16.7514C13.6382 16.8488 13.7519 16.9288 13.8704 17.001C13.9225 17.0328 13.9745 17.0627 14.0275 17.0916C14.0227 17.0165 14.0044 16.9413 13.9764 16.8729C13.9061 16.6965 13.7885 16.5442 13.7095 16.3727C13.6305 16.2012 13.5842 15.9747 13.6835 15.8137C13.7056 15.9265 13.7962 16.0142 13.9003 16.0624C14.0034 16.1096 14.1094 16.1192 14.2231 16.1327C14.1374 16.0113 14.1152 15.8571 14.1191 15.7087C14.1287 15.3184 14.3147 14.93 14.6125 14.6775C14.5894 15.0225 14.7599 15.3753 15.0452 15.5709C15.2013 15.6788 15.3941 15.7482 15.4972 15.9063C15.5974 16.0605 15.5858 16.2677 15.5087 16.4344C15.4326 16.6011 15.2986 16.7351 15.1608 16.8565C15.0789 16.9278 14.9931 17.0001 14.9373 17.0936C14.9035 17.1514 14.8823 17.2198 14.8842 17.2863C14.9797 17.24 15.0866 17.2063 15.1897 17.1735C15.2032 17.1697 15.2167 17.1658 15.2302 17.161C15.5184 17.0714 15.8075 16.9635 16.0397 16.7717C16.272 16.5799 16.4416 16.2879 16.4166 15.9872Z" fill="#FFE7B0"/>
<path d="M12.7183 6.71243C12.6999 6.71243 12.6816 6.71243 12.6643 6.71147C12.4764 6.70569 12.2913 6.69894 12.1101 6.6922C11.8557 5.79594 12.1101 5.05002 12.1101 5.05002C12.3106 5.04231 12.5149 5.03557 12.7231 5.02979C12.5621 5.65524 12.6643 6.33658 12.7183 6.71243Z" fill="#FF635F"/>
<path d="M9.99167 16.476C10.0939 16.476 10.1767 16.3932 10.1767 16.291C10.1767 16.1888 10.0939 16.106 9.99167 16.106C9.88948 16.106 9.80664 16.1888 9.80664 16.291C9.80664 16.3932 9.88948 16.476 9.99167 16.476Z" fill="#D34C4C"/>
<path d="M11.7795 21.0921C11.7795 21.2309 11.6667 21.3427 11.5289 21.3427C11.3911 21.3427 11.2783 21.2299 11.2783 21.0921C11.2783 20.9533 11.3911 20.8416 11.5289 20.8416C11.6667 20.8416 11.7795 20.9533 11.7795 21.0921Z" fill="#D34C4C"/>
<path d="M18.9719 10.3275C18.9719 10.4229 18.8948 10.501 18.7985 10.501C18.7031 10.501 18.625 10.4239 18.625 10.3275C18.625 10.2321 18.7021 10.1541 18.7985 10.1541C18.8939 10.1541 18.9719 10.2311 18.9719 10.3275Z" fill="#B72A2A"/>
<path d="M17.1726 11.0819C17.1726 11.2091 17.0695 11.3122 16.9422 11.3122C16.815 11.3122 16.7119 11.2091 16.7119 11.0819C16.7119 10.9547 16.815 10.8516 16.9422 10.8516C17.0704 10.8516 17.1726 10.9547 17.1726 11.0819Z" fill="#D34C4C"/>
<path d="M13.7789 10.0596C13.7789 10.2504 13.6237 10.4056 13.4329 10.4056C13.2421 10.4056 13.0869 10.2504 13.0869 10.0596C13.0869 9.86878 13.2421 9.71362 13.4329 9.71362C13.6247 9.71362 13.7789 9.86782 13.7789 10.0596Z" fill="#D34C4C"/>
<path d="M13.7789 19.4229C13.7789 19.6137 13.6237 19.7689 13.4329 19.7689C13.2421 19.7689 13.0869 19.6137 13.0869 19.4229C13.0869 19.2321 13.2421 19.0769 13.4329 19.0769C13.6247 19.0769 13.7789 19.2321 13.7789 19.4229Z" fill="#D34C4C"/>
<path d="M16.5937 20.5573C16.7566 20.5573 16.8886 20.4253 16.8886 20.2624C16.8886 20.0996 16.7566 19.9675 16.5937 19.9675C16.4309 19.9675 16.2988 20.0996 16.2988 20.2624C16.2988 20.4253 16.4309 20.5573 16.5937 20.5573Z" fill="#B72A2A"/>
<path d="M14.8576 22.876C14.8576 23.0148 14.7448 23.1276 14.606 23.1276C14.4672 23.1276 14.3545 23.0148 14.3545 22.876C14.3545 22.7373 14.4672 22.6245 14.606 22.6245C14.7448 22.6245 14.8576 22.7373 14.8576 22.876Z" fill="#B72A2A"/>
<path d="M17.6491 22.4559C17.6491 22.6641 17.4805 22.8327 17.2723 22.8327C17.0642 22.8327 16.8955 22.6641 16.8955 22.4559C16.8955 22.2478 17.0642 22.0791 17.2723 22.0791C17.4805 22.0791 17.6491 22.2478 17.6491 22.4559Z" fill="#B72A2A"/>
<path opacity="0.35" d="M13.01 12.4313C12.6727 13.1917 12.6756 14.06 12.7787 14.8859C12.8818 15.7128 13.0794 16.5281 13.1112 17.3598C13.143 18.1924 12.9897 19.0684 12.4684 19.718C12.0087 20.2923 11.3013 20.6325 10.5766 20.7588C10.5448 20.7646 10.514 20.7694 10.4822 20.7742C8.10467 12.2357 9.85671 9.81097 10.8012 9.14697C11.3216 8.78172 11.6627 8.22277 11.7437 7.60406C12.0328 7.52311 12.3286 7.473 12.6322 7.4701C13.5179 7.46047 14.47 7.97316 14.6801 8.8328C14.842 9.49487 14.5413 10.183 14.1549 10.7438C13.7684 11.3047 13.2866 11.8088 13.01 12.4313Z" fill="#EBF7FF"/>
<path opacity="0.35" d="M11.1912 9.81946C10.8597 10.2464 10.4752 10.6396 10.2285 11.1205C9.8854 11.7912 9.84011 12.5709 9.84396 13.3245C9.85167 14.9223 10.0454 16.5183 10.4203 18.0718C10.4636 18.252 10.5118 18.4361 10.614 18.5902C10.7161 18.7444 10.8848 18.8678 11.0708 18.8668C11.252 18.8659 11.4167 18.7473 11.516 18.5951C11.6153 18.4438 11.6586 18.2626 11.6904 18.0843C11.8919 16.9558 11.6943 15.8003 11.6066 14.6583C11.5189 13.5153 11.5584 12.2972 12.1675 11.3267C12.3968 10.9615 12.6985 10.6444 12.9173 10.2714C13.1351 9.89849 13.2632 9.43687 13.1042 9.035C12.9606 8.67264 12.3853 8.26017 11.9815 8.46352C11.7801 8.56471 11.7569 8.81142 11.6827 9.00031C11.5652 9.29809 11.3859 9.56793 11.1912 9.81946Z" fill="#EBF7FF"/>
<path d="M11.4275 9.35108C10.67 10.2878 9.93279 11.2563 9.82196 12.4966C9.80558 12.6817 10.0947 12.6807 10.1111 12.4966C10.2142 11.3421 10.9293 10.4256 11.6328 9.55539C11.7484 9.41179 11.5451 9.20652 11.4275 9.35108Z" fill="white"/>
<path d="M10.5221 17.5322C10.2975 16.5974 10.1578 15.6539 10.1029 14.6941C10.0923 14.509 9.80316 14.5081 9.81376 14.6941C9.86966 15.679 10.0133 16.6504 10.2436 17.6093C10.286 17.7895 10.5655 17.7134 10.5221 17.5322Z" fill="white"/>
</svg>
